<?xml version="1.0" encoding="UTF-8" standalone="no"?>
<!-- Uploaded to: SVG Repo, www.svgrepo.com, Generator: SVG Repo Mixer Tools -->

<svg
   height="800px"
   width="800px"
   version="1.1"
   id="Layer_1"
   viewBox="0 0 473.677 473.677"
   xml:space="preserve"
   sodipodi:docname="logo.svg"
   inkscape:version="1.2.2 (b0a8486541, 2022-12-01)"
   xmlns:inkscape="http://www.inkscape.org/namespaces/inkscape"
   xmlns:sodipodi="http://sodipodi.sourceforge.net/DTD/sodipodi-0.dtd"
   xmlns="http://www.w3.org/2000/svg"
   xmlns:svg="http://www.w3.org/2000/svg"><defs
   id="defs13" /><sodipodi:namedview
   id="namedview11"
   pagecolor="#ffffff"
   bordercolor="#000000"
   borderopacity="0.25"
   inkscape:showpageshadow="2"
   inkscape:pageopacity="0.0"
   inkscape:pagecheckerboard="0"
   inkscape:deskcolor="#d1d1d1"
   showgrid="false"
   inkscape:zoom="0.295"
   inkscape:cx="401.69492"
   inkscape:cy="401.69492"
   inkscape:window-width="1862"
   inkscape:window-height="1131"
   inkscape:window-x="58"
   inkscape:window-y="32"
   inkscape:window-maximized="1"
   inkscape:current-layer="Layer_1" />
<path
   style="fill:#1a1a1a"
   d="M473.677,236.842c0-130.814-106.036-236.838-236.835-236.838C106.036,0.004,0,106.032,0,236.842  c0,130.795,106.036,236.831,236.842,236.831C367.641,473.673,473.677,367.637,473.677,236.842z"
   id="path2" />
<g
   id="g8"
   style="fill:#8080ff">
	<path
   style="fill:#8080ff"
   d="M414.449,297.547c-17.243-27.052-34.494-54.108-51.741-81.156c-2.909-4.57-9.218-4.458-12.12,0.045   c-17.374,26.966-34.756,53.936-52.133,80.902c-1.881,2.917-1.245,5.733,0.52,7.681c1.092,1.653,2.909,2.831,5.505,2.838   c9.151,0.022,18.301,0.045,27.448,0.067c-42.22,67.081-144.695,73.228-192.797,4.342c-15.407-22.06-51.86-0.995-36.293,21.304   c33.963,48.633,89.746,76.474,149.359,69.65c57.361-6.57,103.657-43.663,126.644-95.18c9.835,0.026,19.674,0.049,29.513,0.075   C413.537,308.126,417.366,302.12,414.449,297.547z"
   id="path4" />
	<path
   style="fill:#8080ff"
   d="M370.457,138.899c-33.97-48.633-89.75-76.478-149.366-69.65   c-57.933,6.63-104.547,44.43-127.288,96.761c-12.232-0.03-24.476-0.06-36.708-0.09c-5.187-0.015-9.02,5.987-6.099,10.561   c17.243,27.052,34.49,54.108,51.733,81.16c2.913,4.566,9.218,4.454,12.124-0.045c17.374-26.97,34.759-53.936,52.133-80.902   c1.877-2.917,1.245-5.729-0.512-7.677c-1.092-1.653-2.909-2.835-5.508-2.842c-6.847-0.015-13.694-0.034-20.545-0.049   c41.599-68.55,145.267-75.322,193.744-5.92C349.572,182.259,386.029,161.194,370.457,138.899z"
   id="path6" />
</g>
</svg>
